<svg width="42" height="44" viewBox="0 0 42 44" fill="none" xmlns="http://www.w3.org/2000/svg">
<rect width="42" height="44" rx="12" fill="#FFE98A"/>
<path d="M25.582 12.1504C26.2743 12.1504 26.8262 12.6939 26.8262 13.3828C26.8262 13.7141 26.6808 14.0399 26.4365 14.2842L18.2354 22.2754L18.125 22.3828L18.2354 22.4902L26.4365 30.5039V30.5049C26.6813 30.7497 26.8262 31.0639 26.8262 31.4062C26.8262 32.0952 26.2743 32.6387 25.582 32.6387C25.2351 32.6387 24.9455 32.5139 24.7158 32.2842L24.7139 32.2832L15.5967 23.3652V23.3643L15.4902 23.2539C15.2605 22.9938 15.1513 22.7149 15.1504 22.3984C15.1611 22.0262 15.2979 21.6907 15.5947 21.415L15.5967 21.4121L24.7139 12.5059L24.7158 12.5049C24.9455 12.2752 25.2351 12.1504 25.582 12.1504Z" fill="black" stroke="black" stroke-width="0.3"/>
</svg>
